<svg width="17" height="27" viewBox="0 0 17 27" fill="none" xmlns="http://www.w3.org/2000/svg">
<path d="M12.0654 18.7671C12.0654 17.6311 12.7074 16.5921 13.7234 16.0841L16.0654 14.9131L9.06543 0.913086H7.06543L0.0654297 14.9131L2.40743 16.0841C3.42343 16.5921 4.06543 17.6311 4.06543 18.7671V18.9131H2.06543V26.9131H14.0654V18.9131H12.0654V18.7671ZM3.30143 14.2951L2.74843 14.0191L7.06543 5.38509V12.9131H9.06543V5.38509L13.3824 14.0181L12.8294 14.2941C11.1244 15.1471 10.0654 16.8611 10.0654 18.7671V18.9131H6.06543V18.7671C6.06543 16.8611 5.00643 15.1471 3.30143 14.2951ZM12.0654 24.9131H4.06543V20.9131H12.0654V24.9131Z" fill="#A6F750"/>
</svg>
