<svg width="22" height="22" viewBox="0 0 22 22" fill="none" xmlns="http://www.w3.org/2000/svg">
<path d="M12.4056 2.82727H12.5935C16.398 2.82727 19.639 5.41061 19.639 8.46364C19.639 11.5167 18.8874 13.6303 13.0632 13.6303C11.2783 13.6303 10.339 14.6636 10.0571 15.65C9.90819 16.1804 9.93268 16.7444 10.127 17.2599C10.3214 17.7753 10.6754 18.2152 11.1374 18.5152C11.6071 18.797 11.6071 19.1258 11.5602 19.3136C11.5269 19.4461 11.4466 19.562 11.3343 19.6398C11.222 19.7175 11.0853 19.7519 10.9496 19.7364C5.26623 19.7364 2.72986 15.5091 2.72986 11.2818C2.72986 7.05455 7.05108 2.82727 12.3587 2.82727H12.4056ZM12.3587 0.948486C6.01774 0.948486 0.851074 5.55152 0.851074 11.2818C0.851074 17.0121 4.60865 21.6152 10.9496 21.6152C13.5329 21.6152 14.4723 18.3273 12.1238 16.9182C11.7011 16.6364 11.6541 15.5091 13.0632 15.5091C17.2905 15.5091 21.5177 14.1 21.5177 8.46364C21.5177 4.23637 17.2905 0.948486 12.5935 0.948486H12.3587Z" fill="#A6F750"/>
<path d="M9.7753 4.7061C9.49661 4.7061 9.22418 4.78874 8.99245 4.94358C8.76073 5.09841 8.58012 5.31848 8.47347 5.57596C8.36682 5.83343 8.33892 6.11675 8.39329 6.39009C8.44766 6.66343 8.58186 6.91451 8.77892 7.11157C8.97599 7.30864 9.22707 7.44284 9.5004 7.49721C9.77374 7.55158 10.0571 7.52367 10.3145 7.41702C10.572 7.31037 10.7921 7.12977 10.9469 6.89804C11.1018 6.66632 11.1844 6.39388 11.1844 6.11519C11.191 5.92838 11.159 5.74222 11.0905 5.56829C11.022 5.39436 10.9185 5.23639 10.7863 5.10422C10.6541 4.97204 10.4961 4.86848 10.3222 4.79999C10.1483 4.7315 9.96211 4.69954 9.7753 4.7061Z" fill="#A6F750"/>
<path d="M6.48722 7.05455C6.20853 7.05455 5.93609 7.13719 5.70437 7.29203C5.47264 7.44686 5.29204 7.66693 5.18539 7.92441C5.07874 8.18188 5.05083 8.46521 5.1052 8.73854C5.15957 9.01188 5.29377 9.26295 5.49084 9.46002C5.6879 9.65708 5.93898 9.79129 6.21232 9.84566C6.48565 9.90003 6.76898 9.87212 7.02645 9.76547C7.28393 9.65882 7.504 9.47821 7.65883 9.24649C7.81367 9.01477 7.89631 8.74233 7.89631 8.46364C7.90287 8.27683 7.87091 8.09067 7.80242 7.91674C7.73393 7.74281 7.63037 7.58484 7.49819 7.45267C7.36601 7.32049 7.20805 7.21693 7.03412 7.14844C6.86019 7.07995 6.67403 7.04799 6.48722 7.05455Z" fill="#A6F750"/>
<path d="M13.5331 4.23637C13.2544 4.23637 12.982 4.31902 12.7503 4.47385C12.5185 4.62868 12.3379 4.84875 12.2313 5.10623C12.1246 5.36371 12.0967 5.64703 12.1511 5.92037C12.2055 6.1937 12.3397 6.44478 12.5367 6.64184C12.7338 6.83891 12.9849 6.97311 13.2582 7.02748C13.5316 7.08185 13.8149 7.05395 14.0724 6.9473C14.3298 6.84065 14.5499 6.66004 14.7047 6.42831C14.8596 6.19659 14.9422 5.92416 14.9422 5.64547C14.9488 5.45865 14.9168 5.27249 14.8483 5.09856C14.7798 4.92464 14.6763 4.76667 14.5441 4.63449C14.4119 4.50231 14.2539 4.39876 14.08 4.33026C13.9061 4.26177 13.7199 4.22981 13.5331 4.23637Z" fill="#A6F750"/>
<path d="M16.8207 6.58488C16.542 6.58488 16.2696 6.66753 16.0379 6.82236C15.8061 6.97719 15.6255 7.19726 15.5189 7.45474C15.4122 7.71222 15.3843 7.99554 15.4387 8.26888C15.4931 8.54221 15.6273 8.79329 15.8243 8.99035C16.0214 9.18742 16.2725 9.32162 16.5458 9.37599C16.8192 9.43036 17.1025 9.40246 17.3599 9.29581C17.6174 9.18916 17.8375 9.00855 17.9923 8.77682C18.1472 8.5451 18.2298 8.27267 18.2298 7.99398C18.2364 7.80716 18.2044 7.621 18.1359 7.44707C18.0674 7.27315 17.9639 7.11518 17.8317 6.983C17.6995 6.85082 17.5415 6.74727 17.3676 6.67878C17.1937 6.61028 17.0075 6.57832 16.8207 6.58488Z" fill="#A6F750"/>
</svg>
