<svg width="20" height="21" viewBox="0 0 20 21" fill="none" xmlns="http://www.w3.org/2000/svg">
<path d="M9.96651 6.72498C11.807 6.72498 13.3568 7.98424 13.7443 9.72783C13.8411 10.2122 14.4223 10.5996 14.9067 10.4059C15.391 10.309 15.7785 9.72783 15.5847 9.2435C15.0035 6.53125 12.6788 4.78766 9.96651 4.78766C6.76993 4.78766 4.15454 7.40304 4.15454 10.5996C4.15454 13.6025 6.47933 16.121 9.48218 16.4116H9.57904C10.0634 16.4116 10.4508 16.0241 10.5477 15.5398C10.6446 15.0555 10.1602 14.5711 9.67591 14.4743C7.73859 14.2805 6.09186 12.5369 6.09186 10.5996C6.09186 8.46857 7.83545 6.72498 9.96651 6.72498Z" fill="#A6F750"/>
<path d="M9.96639 18.349C5.70429 18.349 2.21711 14.8618 2.21711 10.5997C2.21711 6.33759 5.70429 2.85041 9.96639 2.85041C14.0348 2.85041 17.4251 6.04699 17.7157 10.1154C17.7157 10.6966 18.2 11.084 18.7812 10.9872C19.3624 10.9872 19.7499 10.5028 19.653 9.92163C19.2655 4.8846 15.1003 0.913086 9.96639 0.913086C4.63876 0.913086 0.279785 5.27206 0.279785 10.5997C0.279785 15.9273 4.63876 20.2863 9.96639 20.2863C10.5476 20.2863 10.9351 19.8988 10.9351 19.3176C10.9351 18.7364 10.5476 18.349 9.96639 18.349Z" fill="#A6F750"/>
<path d="M18.9752 13.0213C18.8783 12.9245 18.6846 12.8276 18.5877 12.8276L12.2914 10.6966C11.7102 10.5028 11.0321 10.6966 10.5478 11.1809C10.0635 11.6652 9.96661 12.3433 10.2572 12.9245L13.1632 19.3176C13.4538 19.8988 14.035 20.2863 14.6162 20.2863C14.713 20.2863 14.8099 20.2863 14.9068 20.2863C15.6817 20.1894 16.166 19.6082 16.2629 18.8333L16.5535 16.5085L18.4908 15.9273C19.072 15.7336 19.5564 15.2493 19.6532 14.5712C19.7501 13.99 19.4595 13.3119 18.9752 13.0213ZM15.8754 14.6681C15.1974 14.8618 14.8099 15.3461 14.7131 16.0242L14.5193 17.4772L12.3883 12.7307L17.0378 14.2806L15.8754 14.6681Z" fill="#A6F750"/>
</svg>
