<svg width="23" height="23" viewBox="0 0 23 23" fill="none" xmlns="http://www.w3.org/2000/svg">
<path d="M15.1121 7.92162L16.2151 6.8186C16.8637 7.33767 17.6432 7.66209 18.4864 7.66209C20.4974 7.66209 22.1198 6.03971 22.1198 4.02862C22.1192 2.01724 20.4974 0.395447 18.4861 0.395447C16.4753 0.395447 14.8526 2.01753 14.8526 4.02891C14.8526 4.93728 15.1767 5.71559 15.6961 6.29983L14.5928 7.40313C14.7874 7.59749 14.9821 7.79243 15.1121 7.92162ZM19.07 2.86072H19.7834V2.1473H20.043V2.86101H20.757V3.12055H20.043V3.83455H19.7834V3.12026H19.07V2.86072ZM17.4479 4.09351C17.4479 4.02862 17.4479 3.96374 17.5134 3.89886C17.4479 3.89886 17.4479 3.89886 17.3839 3.89886C16.8646 3.89886 16.4753 3.50956 16.4753 3.05537C16.4753 2.60119 16.994 2.21189 17.5134 2.21189H18.6807L18.4212 2.40654H18.0319C18.2914 2.47171 18.4212 2.79613 18.4212 3.12026C18.4212 3.37979 18.2914 3.57444 18.0965 3.76909C17.9018 3.89886 17.8369 3.96374 17.8369 4.09351C17.8369 4.22327 18.0319 4.41792 18.1614 4.48281C18.4855 4.67745 18.5507 4.93699 18.5507 5.2614C18.5507 5.7153 18.1614 6.10489 17.383 6.10489C16.7345 6.10489 16.1503 5.84535 16.1503 5.39117C16.1503 4.93699 16.669 4.54769 17.3179 4.54769C17.383 4.54769 17.4473 4.54769 17.5125 4.54769C17.5125 4.35333 17.4479 4.22356 17.4479 4.09351Z" fill="#A6F750"/>
<path d="M18.4861 15.3186C17.6429 15.3186 16.7994 15.6427 16.2149 16.1621L15.1121 15.0588C14.9821 15.2534 14.7874 15.3826 14.658 15.5124L15.7613 16.6157C15.2422 17.2639 14.9178 18.0434 14.9178 18.8869C14.9178 20.898 16.5404 22.5204 18.5515 22.5204C20.5623 22.5204 22.1853 20.898 22.1853 18.8869C22.1192 16.8755 20.4975 15.3186 18.4861 15.3186ZM17.4479 20.5741H16.7342V18.3029H17.4479V20.5741ZM17.1235 17.9791C16.864 17.9791 16.6696 17.7842 16.6696 17.5892C16.6696 17.3946 16.8643 17.1999 17.1235 17.1999C17.3828 17.1999 17.5774 17.3946 17.5774 17.5892C17.5125 17.849 17.3831 17.9791 17.1235 17.9791ZM20.3677 20.5741H19.5242V19.4065C19.5242 19.0824 19.3947 18.8875 19.1346 18.8875C18.94 18.8875 18.8105 19.0172 18.7453 19.147C18.7453 19.2128 18.7453 19.2771 18.7453 19.3419V20.575H17.9667C17.9667 20.575 17.9667 18.4987 17.9667 18.3038H18.7453V18.6282C18.8105 18.4987 19.07 18.2389 19.4593 18.2389C19.9781 18.2389 20.3677 18.5631 20.3677 19.2771V20.5741Z" fill="#A6F750"/>
<path d="M7.06648 15.0593L5.96346 16.1626C5.31463 15.6433 4.53603 15.3191 3.69255 15.3191C1.68116 15.3191 0.059082 16.9418 0.059082 18.9523C0.059082 20.9637 1.68116 22.5861 3.69255 22.5861C5.70364 22.5861 7.32601 20.9637 7.32601 18.9523C7.32601 18.1088 7.00159 17.2656 6.48253 16.6814L7.58554 15.5781C7.39089 15.3832 7.19624 15.1882 7.06648 15.0593ZM5.25004 18.3681C5.25004 19.4711 4.40655 20.7036 2.91424 20.7036C2.46034 20.7036 2.00587 20.5738 1.68145 20.3137C1.74634 20.3137 1.81122 20.3137 1.8761 20.3137C2.2654 20.3137 2.58982 20.1842 2.91424 19.9896C2.58982 19.9896 2.2654 19.7301 2.13564 19.4053C2.20052 19.4053 2.26511 19.4053 2.26511 19.4053C2.33029 19.4053 2.39488 19.4053 2.46005 19.4053C2.07046 19.3399 1.81122 19.016 1.81122 18.6267C1.94099 18.6919 2.07075 18.7562 2.20052 18.7562C2.00587 18.6267 1.81122 18.3669 1.81122 18.1074C1.81122 17.9782 1.8761 17.8479 1.94099 17.7181C2.33029 18.2374 2.91395 18.5616 3.62766 18.5616C3.62766 18.4961 3.62766 18.4321 3.62766 18.3669C3.62766 17.9127 4.01725 17.5234 4.47115 17.5234C4.73068 17.5234 4.92533 17.6529 5.05539 17.783C5.25004 17.7178 5.44469 17.6532 5.57445 17.5883C5.50928 17.783 5.37951 17.9125 5.18486 18.0419C5.37951 18.0419 5.50928 17.9768 5.63905 17.9125C5.50928 18.1071 5.37951 18.2366 5.24975 18.3018C5.25004 18.3029 5.25004 18.3029 5.25004 18.3681Z" fill="#A6F750"/>
<path d="M3.69255 7.66239C4.53603 7.66239 5.37922 7.33797 5.96346 6.81891L7.06648 7.92192C7.19625 7.72727 7.3909 7.5978 7.52066 7.46803L6.41736 6.36501C6.93642 5.71618 7.26084 4.93758 7.26084 4.0941C7.26084 2.08271 5.63876 0.460632 3.62737 0.460632C1.61628 0.460632 0.059082 2.08271 0.059082 4.0941C0.059082 6.04002 1.68116 7.66239 3.69255 7.66239ZM2.84906 3.44468H3.23836V3.05538C3.23836 2.53632 3.43301 2.2119 4.08185 2.2119H4.60091V2.86073H4.2765C4.01696 2.86073 4.01696 2.92562 4.01696 3.12027V3.44468H4.60091L4.53603 4.09352H3.9515V5.91025H3.1729V4.09352H2.78389V3.44468H2.84906Z" fill="#A6F750"/>
<path d="M14.3987 13.3069C14.3333 13.1777 14.2038 13.112 14.1392 13.112C13.5552 12.9173 13.0365 12.7882 12.4525 12.5932C12.3876 12.5932 12.2579 12.4637 12.2579 12.2039C12.2579 12.0739 12.2579 12.009 12.1284 12.009C12.0629 12.009 12.1284 12.009 12.0629 11.9441C11.9983 11.6846 11.9983 11.5545 11.9983 11.4899C11.9983 11.4253 12.0629 11.4247 12.0629 11.3601C12.2579 11.1006 12.3225 10.7116 12.3225 10.5815C12.3225 10.5815 12.3876 10.5815 12.3876 10.5164C12.4525 10.3866 12.4525 10.3866 12.4525 10.1917C12.518 10.0625 12.518 9.86782 12.3876 9.86782C12.3225 9.93271 12.3225 9.86782 12.3225 9.73806V8.95946C12.3225 8.69993 12.1275 8.50556 11.9983 8.44068C11.8031 8.31063 11.7388 8.24574 11.6736 8.24574C11.6084 8.18086 11.6084 8.11598 11.6736 8.05109C11.7385 7.9865 11.8031 7.9865 11.8031 7.92133C11.8031 7.92133 11.8031 7.92133 11.7379 7.92133C11.6727 7.92133 11.284 7.98679 11.0894 8.05109C10.765 8.11598 10.4405 8.24574 10.1807 8.44068C9.98607 8.57016 9.85631 8.76481 9.85631 9.02492C9.85631 9.15411 9.85631 9.5437 9.85631 9.80352C9.85631 9.86898 9.85631 9.93329 9.79142 9.86898C9.59677 9.86898 9.72654 10.1285 9.72654 10.1928C9.72654 10.3226 9.79142 10.3878 9.85602 10.5175C9.85602 10.5827 9.92119 10.5827 9.92119 10.5827C9.98607 10.7773 10.051 11.1666 10.1807 11.3613C10.1807 11.3613 10.2459 11.4265 10.2459 11.4911C10.2459 11.6208 10.2459 11.8155 10.1807 11.9452C10.1807 11.9452 10.1807 12.0104 10.1158 12.0104C9.98607 12.0104 9.98607 12.0753 9.98607 12.2051C9.98607 12.3997 9.85631 12.5947 9.79142 12.5947C9.46701 12.7238 8.49405 13.0486 8.16934 13.1134C7.97469 13.1789 7.90981 13.2432 7.84492 13.3081L7.52051 14.0867C8.81788 14.0867 9.46701 14.8653 10.8296 15.1248H11.4784C12.8409 14.9302 13.8139 14.0867 14.7226 14.0867L14.3987 13.3069Z" fill="#A6F750"/>
</svg>
