<svg width="23" height="19" viewBox="0 0 23 19" fill="none" xmlns="http://www.w3.org/2000/svg">
<path d="M1.56543 5.51943C1.56543 4.25709 1.56543 3.62592 1.8111 3.14377C2.02719 2.71966 2.372 2.37484 2.79612 2.15876C3.27826 1.91309 3.90944 1.91309 5.17178 1.91309H18.2448C19.5071 1.91309 20.1383 1.91309 20.6205 2.15876C21.0446 2.37484 21.3894 2.71966 21.6055 3.14377C21.8511 3.62592 21.8511 4.25709 21.8511 5.51943V14.0845C21.8511 15.3468 21.8511 15.9781 21.6055 16.4602C21.3894 16.8843 21.0446 17.2291 20.6205 17.4452C20.1383 17.6909 19.5071 17.6909 18.2448 17.6909H5.17178C3.90943 17.6909 3.27826 17.6909 2.79612 17.4452C2.372 17.2291 2.02719 16.8843 1.8111 16.4602C1.56543 15.9781 1.56543 15.3468 1.56543 14.0845V5.51943Z" stroke="#A6F750" stroke-width="2" stroke-linecap="round" stroke-linejoin="round"/>
<path d="M9.45444 6.42102L6.07349 9.80197L9.45444 13.1829M13.9624 6.42102L17.3433 9.80197L13.9624 13.1829" stroke="#A6F750" stroke-width="2" stroke-linecap="round" stroke-linejoin="round"/>
</svg>
