<svg width="23" height="20" viewBox="0 0 23 20" fill="none" xmlns="http://www.w3.org/2000/svg">
<path d="M20.5684 0.414795H2.4318C1.27611 0.414795 0.339111 1.3518 0.339111 2.50748V17.8538C0.339111 19.0095 1.27611 19.9465 2.4318 19.9465H20.5684C21.7241 19.9465 22.6611 19.0095 22.6611 17.8538V2.50748C22.6611 1.3518 21.7241 0.414795 20.5684 0.414795ZM19.7254 1.94071C20.1828 1.94071 20.5538 2.31164 20.5538 2.76907C20.5538 3.22649 20.1828 3.59742 19.7254 3.59742C19.268 3.59742 18.8971 3.22649 18.8971 2.76907C18.8971 2.31164 19.268 1.94071 19.7254 1.94071ZM16.6518 1.94071C17.1092 1.94071 17.4801 2.31164 17.4801 2.76907C17.4801 3.22649 17.1092 3.59742 16.6518 3.59742C16.1943 3.59742 15.8234 3.22649 15.8234 2.76907C15.8234 2.31164 16.1943 1.94071 16.6518 1.94071ZM13.5781 1.94071C14.0356 1.94071 14.4065 2.31164 14.4065 2.76907C14.4065 3.22649 14.0356 3.59742 13.5781 3.59742C13.1207 3.59742 12.7498 3.22649 12.7498 2.76907C12.7498 2.31164 13.1207 1.94071 13.5781 1.94071ZM20.9172 17.8538C20.9172 18.0459 20.7609 18.2026 20.5684 18.2026H2.4318C2.23936 18.2026 2.08302 18.0459 2.08302 17.8538V4.94895H20.9172V17.8538Z" fill="#A6F750"/>
<path d="M4.58887 13.261H5.28778C5.33038 13.261 5.35863 13.2334 5.37193 13.1929L5.97244 11.2746H5.98709L6.5726 13.1929C6.5869 13.2335 6.6155 13.261 6.6574 13.261H7.36316C7.40606 13.261 7.43436 13.2334 7.44765 13.1929L8.54269 10.0253C8.55634 9.98477 8.53454 9.95721 8.4858 9.95721H7.61764C7.56755 9.95721 7.5396 9.97832 7.526 10.0253L6.98918 11.9913H6.97558L6.37541 10.0253C6.36076 9.97832 6.33282 9.95721 6.28342 9.95721H5.69041C5.64071 9.95721 5.60522 9.97832 5.59196 10.0253L5.0054 11.9913H4.9911L4.42669 10.0253C4.41239 9.97832 4.38514 9.95721 4.32789 9.95721H3.46008C3.41683 9.95721 3.39669 9.98481 3.40964 10.0253L4.50473 13.1929C4.51868 13.2334 4.54697 13.261 4.58887 13.261Z" fill="#A6F750"/>
<path d="M10.1083 13.261H10.8082C10.8501 13.261 10.8788 13.2334 10.8924 13.1929L11.4925 11.2746H11.5068L12.0924 13.1929C12.107 13.2335 12.1353 13.261 12.1775 13.261H12.8829C12.9258 13.261 12.9538 13.2334 12.9681 13.1929L14.0625 10.0253C14.0761 9.98477 14.055 9.95721 14.0059 9.95721H13.138C13.0876 9.95721 13.0593 9.97832 13.0457 10.0253L12.5089 11.9913H12.4949L11.8951 10.0253C11.8805 9.97832 11.8526 9.95721 11.8035 9.95721H11.2102C11.1608 9.95721 11.1253 9.97832 11.1117 10.0253L10.5255 11.9913H10.5116L9.94649 10.0253C9.93284 9.97832 9.90424 9.95721 9.84804 9.95721H8.97984C8.93659 9.95721 8.91579 9.98481 8.93044 10.0253L10.0245 13.1929C10.0385 13.2334 10.0668 13.261 10.1083 13.261Z" fill="#A6F750"/>
<path d="M15.6364 13.261H16.336C16.3776 13.261 16.4058 13.2334 16.4198 13.1929L17.02 11.2746H17.0346L17.6201 13.1929C17.6344 13.2335 17.6624 13.261 17.7046 13.261H18.4107C18.4533 13.261 18.4815 13.2334 18.4955 13.1929L19.5905 10.0253C19.6035 9.98477 19.5824 9.95721 19.534 9.95721H18.6648C18.6154 9.95721 18.5871 9.97832 18.5735 10.0253L18.0371 11.9913H18.0231L17.423 10.0253C17.4083 9.97832 17.3804 9.95721 17.3313 9.95721H16.7376C16.6882 9.95721 16.6531 9.97832 16.6395 10.0253L16.0526 11.9913H16.0393L15.4746 10.0253C15.4599 9.97832 15.4327 9.95721 15.3758 9.95721H14.5072C14.465 9.95721 14.4438 9.98481 14.4575 10.0253L15.5526 13.1929C15.5659 13.2334 15.5942 13.261 15.6364 13.261Z" fill="#A6F750"/>
</svg>
